<?xml version="1.0" standalone="no"?>
<svg xmlns:xlink="http://www.w3.org/1999/xlink" id="wave" style="transform:rotate(0deg); transition: 0.3s" viewBox="0 0 1440 490" version="1.1" xmlns="http://www.w3.org/2000/svg"><defs><linearGradient id="sw-gradient-0" x1="0" x2="0" y1="1" y2="0"><stop stop-color="rgba(255, 255, 255, 1)" offset="0%"/><stop stop-color="rgba(255, 255, 255, 1)" offset="100%"/></linearGradient></defs><path style="transform:translate(0, 0px); opacity:1" fill="url(#sw-gradient-0)" d="M0,294L80,310.3C160,327,320,359,480,359.3C640,359,800,327,960,334.8C1120,343,1280,392,1440,392C1600,392,1760,343,1920,302.2C2080,261,2240,229,2400,253.2C2560,278,2720,359,2880,392C3040,425,3200,408,3360,351.2C3520,294,3680,196,3840,163.3C4000,131,4160,163,4320,220.5C4480,278,4640,359,4800,343C4960,327,5120,212,5280,187.8C5440,163,5600,229,5760,253.2C5920,278,6080,261,6240,285.8C6400,310,6560,376,6720,367.5C6880,359,7040,278,7200,245C7360,212,7520,229,7680,204.2C7840,180,8000,114,8160,130.7C8320,147,8480,245,8640,294C8800,343,8960,343,9120,351.2C9280,359,9440,376,9600,375.7C9760,376,9920,359,10080,343C10240,327,10400,310,10560,253.2C10720,196,10880,98,11040,89.8C11200,82,11360,163,11440,204.2L11520,245L11520,490L11440,490C11360,490,11200,490,11040,490C10880,490,10720,490,10560,490C10400,490,10240,490,10080,490C9920,490,9760,490,9600,490C9440,490,9280,490,9120,490C8960,490,8800,490,8640,490C8480,490,8320,490,8160,490C8000,490,7840,490,7680,490C7520,490,7360,490,7200,490C7040,490,6880,490,6720,490C6560,490,6400,490,6240,490C6080,490,5920,490,5760,490C5600,490,5440,490,5280,490C5120,490,4960,490,4800,490C4640,490,4480,490,4320,490C4160,490,4000,490,3840,490C3680,490,3520,490,3360,490C3200,490,3040,490,2880,490C2720,490,2560,490,2400,490C2240,490,2080,490,1920,490C1760,490,1600,490,1440,490C1280,490,1120,490,960,490C800,490,640,490,480,490C320,490,160,490,80,490L0,490Z"/></svg>